%TF.GenerationSoftware,KiCad,Pcbnew,8.0.3*%
%TF.CreationDate,2024-11-17T10:30:07+00:00*%
%TF.ProjectId,ENS_light_sw_board,454e535f-6c69-4676-9874-5f73775f626f,rev?*%
%TF.SameCoordinates,Original*%
%TF.FileFunction,Soldermask,Top*%
%TF.FilePolarity,Negative*%
%FSLAX46Y46*%
G04 Gerber Fmt 4.6, Leading zero omitted, Abs format (unit mm)*
G04 Created by KiCad (PCBNEW 8.0.3) date 2024-11-17 10:30:07*
%MOMM*%
%LPD*%
G01*
G04 APERTURE LIST*
G04 Aperture macros list*
%AMRoundRect*
0 Rectangle with rounded corners*
0 $1 Rounding radius*
0 $2 $3 $4 $5 $6 $7 $8 $9 X,Y pos of 4 corners*
0 Add a 4 corners polygon primitive as box body*
4,1,4,$2,$3,$4,$5,$6,$7,$8,$9,$2,$3,0*
0 Add four circle primitives for the rounded corners*
1,1,$1+$1,$2,$3*
1,1,$1+$1,$4,$5*
1,1,$1+$1,$6,$7*
1,1,$1+$1,$8,$9*
0 Add four rect primitives between the rounded corners*
20,1,$1+$1,$2,$3,$4,$5,0*
20,1,$1+$1,$4,$5,$6,$7,0*
20,1,$1+$1,$6,$7,$8,$9,0*
20,1,$1+$1,$8,$9,$2,$3,0*%
G04 Aperture macros list end*
%ADD10R,0.750000X1.000000*%
%ADD11RoundRect,0.250000X-0.450000X0.325000X-0.450000X-0.325000X0.450000X-0.325000X0.450000X0.325000X0*%
%ADD12RoundRect,0.250000X-0.450000X0.350000X-0.450000X-0.350000X0.450000X-0.350000X0.450000X0.350000X0*%
%ADD13R,1.700000X1.700000*%
%ADD14O,1.700000X1.700000*%
G04 APERTURE END LIST*
D10*
%TO.C,SW3*%
X121841000Y-75867000D03*
X121841000Y-81867000D03*
X118091000Y-75867000D03*
X118091000Y-81867000D03*
%TD*%
%TO.C,SW2*%
X128396000Y-75867000D03*
X128396000Y-81867000D03*
X124646000Y-75867000D03*
X124646000Y-81867000D03*
%TD*%
D11*
%TO.C,D4*%
X113439142Y-65083000D03*
X113439142Y-67133000D03*
%TD*%
D12*
%TO.C,R5*%
X133022858Y-60706000D03*
X133022858Y-62706000D03*
%TD*%
D11*
%TO.C,D3*%
X120043142Y-65067000D03*
X120043142Y-67117000D03*
%TD*%
%TO.C,D1*%
X133051000Y-65067000D03*
X133051000Y-67117000D03*
%TD*%
D12*
%TO.C,R7*%
X120015000Y-60706000D03*
X120015000Y-62706000D03*
%TD*%
D11*
%TO.C,D2*%
X126463000Y-65067000D03*
X126463000Y-67117000D03*
%TD*%
D12*
%TO.C,R2*%
X126492000Y-70644000D03*
X126492000Y-72644000D03*
%TD*%
%TO.C,R8*%
X113411000Y-60722000D03*
X113411000Y-62722000D03*
%TD*%
%TO.C,R6*%
X126434858Y-60706000D03*
X126434858Y-62706000D03*
%TD*%
D10*
%TO.C,SW4*%
X115286000Y-75867000D03*
X115286000Y-81867000D03*
X111536000Y-75867000D03*
X111536000Y-81867000D03*
%TD*%
%TO.C,SW1*%
X134951000Y-75867000D03*
X134951000Y-81867000D03*
X131201000Y-75867000D03*
X131201000Y-81867000D03*
%TD*%
D12*
%TO.C,R4*%
X113411000Y-70644000D03*
X113411000Y-72644000D03*
%TD*%
D13*
%TO.C,J1*%
X128143000Y-85725000D03*
D14*
X128143000Y-88265000D03*
X125603000Y-85725000D03*
X125603000Y-88265000D03*
X123063000Y-85725000D03*
X123063000Y-88265000D03*
X120523000Y-85725000D03*
X120523000Y-88265000D03*
X117983000Y-85725000D03*
X117983000Y-88265000D03*
%TD*%
D12*
%TO.C,R3*%
X120015000Y-70644000D03*
X120015000Y-72644000D03*
%TD*%
%TO.C,R1*%
X133096000Y-70612000D03*
X133096000Y-72612000D03*
%TD*%
M02*
