%TF.GenerationSoftware,KiCad,Pcbnew,8.0.3*%
%TF.CreationDate,2024-11-17T10:30:07+00:00*%
%TF.ProjectId,ENS_light_sw_board,454e535f-6c69-4676-9874-5f73775f626f,rev?*%
%TF.SameCoordinates,Original*%
%TF.FileFunction,Copper,L1,Top*%
%TF.FilePolarity,Positive*%
%FSLAX46Y46*%
G04 Gerber Fmt 4.6, Leading zero omitted, Abs format (unit mm)*
G04 Created by KiCad (PCBNEW 8.0.3) date 2024-11-17 10:30:07*
%MOMM*%
%LPD*%
G01*
G04 APERTURE LIST*
G04 Aperture macros list*
%AMRoundRect*
0 Rectangle with rounded corners*
0 $1 Rounding radius*
0 $2 $3 $4 $5 $6 $7 $8 $9 X,Y pos of 4 corners*
0 Add a 4 corners polygon primitive as box body*
4,1,4,$2,$3,$4,$5,$6,$7,$8,$9,$2,$3,0*
0 Add four circle primitives for the rounded corners*
1,1,$1+$1,$2,$3*
1,1,$1+$1,$4,$5*
1,1,$1+$1,$6,$7*
1,1,$1+$1,$8,$9*
0 Add four rect primitives between the rounded corners*
20,1,$1+$1,$2,$3,$4,$5,0*
20,1,$1+$1,$4,$5,$6,$7,0*
20,1,$1+$1,$6,$7,$8,$9,0*
20,1,$1+$1,$8,$9,$2,$3,0*%
G04 Aperture macros list end*
%TA.AperFunction,SMDPad,CuDef*%
%ADD10R,0.750000X1.000000*%
%TD*%
%TA.AperFunction,SMDPad,CuDef*%
%ADD11RoundRect,0.250000X-0.450000X0.325000X-0.450000X-0.325000X0.450000X-0.325000X0.450000X0.325000X0*%
%TD*%
%TA.AperFunction,SMDPad,CuDef*%
%ADD12RoundRect,0.250000X-0.450000X0.350000X-0.450000X-0.350000X0.450000X-0.350000X0.450000X0.350000X0*%
%TD*%
%TA.AperFunction,ComponentPad*%
%ADD13R,1.700000X1.700000*%
%TD*%
%TA.AperFunction,ComponentPad*%
%ADD14O,1.700000X1.700000*%
%TD*%
%TA.AperFunction,ViaPad*%
%ADD15C,0.800000*%
%TD*%
%TA.AperFunction,Conductor*%
%ADD16C,0.250000*%
%TD*%
G04 APERTURE END LIST*
D10*
%TO.P,SW3,1,A*%
%TO.N,GND*%
X121841000Y-75867000D03*
X121841000Y-81867000D03*
%TO.P,SW3,2,B*%
%TO.N,/SW3*%
X118091000Y-75867000D03*
X118091000Y-81867000D03*
%TD*%
%TO.P,SW2,1,A*%
%TO.N,GND*%
X128396000Y-75867000D03*
X128396000Y-81867000D03*
%TO.P,SW2,2,B*%
%TO.N,/SW2*%
X124646000Y-75867000D03*
X124646000Y-81867000D03*
%TD*%
D11*
%TO.P,D4,1,K*%
%TO.N,Net-(D4-K)*%
X113439142Y-65083000D03*
%TO.P,D4,2,A*%
%TO.N,+3V3*%
X113439142Y-67133000D03*
%TD*%
D12*
%TO.P,R5,1*%
%TO.N,/D1*%
X133022858Y-60706000D03*
%TO.P,R5,2*%
%TO.N,Net-(D1-K)*%
X133022858Y-62706000D03*
%TD*%
D11*
%TO.P,D3,1,K*%
%TO.N,Net-(D3-K)*%
X120043142Y-65067000D03*
%TO.P,D3,2,A*%
%TO.N,+3V3*%
X120043142Y-67117000D03*
%TD*%
%TO.P,D1,1,K*%
%TO.N,Net-(D1-K)*%
X133051000Y-65067000D03*
%TO.P,D1,2,A*%
%TO.N,+3V3*%
X133051000Y-67117000D03*
%TD*%
D12*
%TO.P,R7,1*%
%TO.N,/D3*%
X120015000Y-60706000D03*
%TO.P,R7,2*%
%TO.N,Net-(D3-K)*%
X120015000Y-62706000D03*
%TD*%
D11*
%TO.P,D2,1,K*%
%TO.N,Net-(D2-K)*%
X126463000Y-65067000D03*
%TO.P,D2,2,A*%
%TO.N,+3V3*%
X126463000Y-67117000D03*
%TD*%
D12*
%TO.P,R2,1*%
%TO.N,+3V3*%
X126492000Y-70644000D03*
%TO.P,R2,2*%
%TO.N,/SW2*%
X126492000Y-72644000D03*
%TD*%
%TO.P,R8,1*%
%TO.N,/D4*%
X113411000Y-60722000D03*
%TO.P,R8,2*%
%TO.N,Net-(D4-K)*%
X113411000Y-62722000D03*
%TD*%
%TO.P,R6,1*%
%TO.N,/D2*%
X126434858Y-60706000D03*
%TO.P,R6,2*%
%TO.N,Net-(D2-K)*%
X126434858Y-62706000D03*
%TD*%
D10*
%TO.P,SW4,1,A*%
%TO.N,GND*%
X115286000Y-75867000D03*
X115286000Y-81867000D03*
%TO.P,SW4,2,B*%
%TO.N,/SW4*%
X111536000Y-75867000D03*
X111536000Y-81867000D03*
%TD*%
%TO.P,SW1,1,A*%
%TO.N,GND*%
X134951000Y-75867000D03*
X134951000Y-81867000D03*
%TO.P,SW1,2,B*%
%TO.N,/SW1*%
X131201000Y-75867000D03*
X131201000Y-81867000D03*
%TD*%
D12*
%TO.P,R4,1*%
%TO.N,+3V3*%
X113411000Y-70644000D03*
%TO.P,R4,2*%
%TO.N,/SW4*%
X113411000Y-72644000D03*
%TD*%
D13*
%TO.P,J1,1,Pin_1*%
%TO.N,/D1*%
X128143000Y-85725000D03*
D14*
%TO.P,J1,2,Pin_2*%
%TO.N,/SW1*%
X128143000Y-88265000D03*
%TO.P,J1,3,Pin_3*%
%TO.N,/D2*%
X125603000Y-85725000D03*
%TO.P,J1,4,Pin_4*%
%TO.N,/SW2*%
X125603000Y-88265000D03*
%TO.P,J1,5,Pin_5*%
%TO.N,/D3*%
X123063000Y-85725000D03*
%TO.P,J1,6,Pin_6*%
%TO.N,/SW3*%
X123063000Y-88265000D03*
%TO.P,J1,7,Pin_7*%
%TO.N,/D4*%
X120523000Y-85725000D03*
%TO.P,J1,8,Pin_8*%
%TO.N,/SW4*%
X120523000Y-88265000D03*
%TO.P,J1,9,Pin_9*%
%TO.N,GND*%
X117983000Y-85725000D03*
%TO.P,J1,10,Pin_10*%
%TO.N,+3V3*%
X117983000Y-88265000D03*
%TD*%
D12*
%TO.P,R3,1*%
%TO.N,+3V3*%
X120015000Y-70644000D03*
%TO.P,R3,2*%
%TO.N,/SW3*%
X120015000Y-72644000D03*
%TD*%
%TO.P,R1,1*%
%TO.N,+3V3*%
X133096000Y-70612000D03*
%TO.P,R1,2*%
%TO.N,/SW1*%
X133096000Y-72612000D03*
%TD*%
D15*
%TO.N,+3V3*%
X133096000Y-68834000D03*
X126463000Y-68834000D03*
X113411000Y-68834000D03*
X120043142Y-68834000D03*
%TD*%
D16*
%TO.N,+3V3*%
X120043142Y-67117000D02*
X120043142Y-68834000D01*
X120043142Y-70615858D02*
X120015000Y-70644000D01*
X133096000Y-68834000D02*
X133096000Y-67162000D01*
X126463000Y-70615000D02*
X126492000Y-70644000D01*
X113411000Y-67161142D02*
X113439142Y-67133000D01*
X113411000Y-68834000D02*
X113411000Y-67161142D01*
X120043142Y-68834000D02*
X120043142Y-70615858D01*
X126463000Y-67117000D02*
X126463000Y-68834000D01*
X113411000Y-70644000D02*
X113411000Y-68834000D01*
X126463000Y-68834000D02*
X126463000Y-70615000D01*
X133096000Y-70612000D02*
X133096000Y-68834000D01*
X133096000Y-67162000D02*
X133051000Y-67117000D01*
%TO.N,Net-(D1-K)*%
X133051000Y-65067000D02*
X133051000Y-62734142D01*
X133051000Y-62734142D02*
X133022858Y-62706000D01*
%TO.N,Net-(D2-K)*%
X126434858Y-62706000D02*
X126434858Y-65038858D01*
X126434858Y-65038858D02*
X126463000Y-65067000D01*
%TO.N,Net-(D3-K)*%
X120015000Y-65038858D02*
X120043142Y-65067000D01*
X120015000Y-62706000D02*
X120015000Y-65038858D01*
%TO.N,Net-(D4-K)*%
X113411000Y-65054858D02*
X113439142Y-65083000D01*
X113411000Y-62722000D02*
X113411000Y-65054858D01*
%TO.N,/SW3*%
X118516701Y-81867000D02*
X121793000Y-85143299D01*
X121793000Y-86995000D02*
X123063000Y-88265000D01*
X118091000Y-74568000D02*
X120015000Y-72644000D01*
X118091000Y-75867000D02*
X118091000Y-74568000D01*
X118091000Y-81867000D02*
X118516701Y-81867000D01*
X121793000Y-85143299D02*
X121793000Y-86995000D01*
%TO.N,/D3*%
X120015000Y-60706000D02*
X121068142Y-61759142D01*
X121068142Y-83730142D02*
X123063000Y-85725000D01*
X121068142Y-61759142D02*
X121068142Y-83730142D01*
%TO.N,/SW4*%
X111536000Y-74519000D02*
X113411000Y-72644000D01*
X118469701Y-84550000D02*
X119158000Y-85238299D01*
X111536000Y-75867000D02*
X111536000Y-74519000D01*
X111536000Y-81867000D02*
X114219000Y-84550000D01*
X119158000Y-86900000D02*
X120523000Y-88265000D01*
X114219000Y-84550000D02*
X118469701Y-84550000D01*
X119158000Y-85238299D02*
X119158000Y-86900000D01*
%TO.N,/SW2*%
X124646000Y-81867000D02*
X124428000Y-82085000D01*
X124428000Y-82085000D02*
X124428000Y-87090000D01*
X124646000Y-75867000D02*
X124646000Y-74490000D01*
X124428000Y-87090000D02*
X125603000Y-88265000D01*
X124646000Y-74490000D02*
X126492000Y-72644000D01*
%TO.N,/D1*%
X129546000Y-64182858D02*
X129546000Y-84322000D01*
X133022858Y-60706000D02*
X129546000Y-64182858D01*
X129546000Y-84322000D02*
X128143000Y-85725000D01*
%TO.N,/D2*%
X129096000Y-63367142D02*
X129096000Y-79819000D01*
X126434858Y-60706000D02*
X129096000Y-63367142D01*
X129096000Y-79819000D02*
X125603000Y-83312000D01*
X125603000Y-83312000D02*
X125603000Y-85725000D01*
%TO.N,/SW1*%
X133096000Y-73972000D02*
X131201000Y-75867000D01*
X131201000Y-81867000D02*
X131201000Y-85207000D01*
X131201000Y-85207000D02*
X128143000Y-88265000D01*
X133096000Y-72612000D02*
X133096000Y-73972000D01*
%TO.N,/D4*%
X113411000Y-60722000D02*
X117391000Y-64702000D01*
X117391000Y-82593000D02*
X120523000Y-85725000D01*
X117391000Y-64702000D02*
X117391000Y-82593000D01*
%TD*%
%TA.AperFunction,Conductor*%
%TO.N,GND*%
G36*
X128589039Y-81636685D02*
G01*
X128634794Y-81689489D01*
X128646000Y-81741000D01*
X128646000Y-82867000D01*
X128796500Y-82867000D01*
X128863539Y-82886685D01*
X128909294Y-82939489D01*
X128920500Y-82991000D01*
X128920500Y-84011547D01*
X128900815Y-84078586D01*
X128884181Y-84099228D01*
X128645227Y-84338181D01*
X128583904Y-84371666D01*
X128557546Y-84374500D01*
X127245129Y-84374500D01*
X127245123Y-84374501D01*
X127185516Y-84380908D01*
X127050671Y-84431202D01*
X127050664Y-84431206D01*
X126935455Y-84517452D01*
X126935452Y-84517455D01*
X126849206Y-84632664D01*
X126849203Y-84632669D01*
X126800189Y-84764083D01*
X126758317Y-84820016D01*
X126692853Y-84844433D01*
X126624580Y-84829581D01*
X126596326Y-84808430D01*
X126474402Y-84686506D01*
X126474401Y-84686505D01*
X126281376Y-84551347D01*
X126237751Y-84496770D01*
X126228500Y-84449772D01*
X126228500Y-83622452D01*
X126248185Y-83555413D01*
X126264819Y-83534771D01*
X126791078Y-83008512D01*
X127336043Y-82463546D01*
X127397364Y-82430063D01*
X127467056Y-82435047D01*
X127522989Y-82476919D01*
X127539904Y-82507896D01*
X127577645Y-82609086D01*
X127577649Y-82609093D01*
X127663809Y-82724187D01*
X127663812Y-82724190D01*
X127778906Y-82810350D01*
X127778913Y-82810354D01*
X127913620Y-82860596D01*
X127913627Y-82860598D01*
X127973155Y-82866999D01*
X127973172Y-82867000D01*
X128146000Y-82867000D01*
X128146000Y-81741000D01*
X128165685Y-81673961D01*
X128218489Y-81628206D01*
X128270000Y-81617000D01*
X128522000Y-81617000D01*
X128589039Y-81636685D01*
G37*
%TD.AperFunction*%
%TA.AperFunction,Conductor*%
G36*
X132668641Y-57277006D02*
G01*
X132881481Y-57279328D01*
X132890915Y-57279792D01*
X133315552Y-57316943D01*
X133326270Y-57318354D01*
X133745393Y-57392256D01*
X133755921Y-57394590D01*
X134167033Y-57504747D01*
X134177322Y-57507992D01*
X134577255Y-57653555D01*
X134587221Y-57657683D01*
X134972942Y-57837547D01*
X134982528Y-57842538D01*
X135351088Y-58055326D01*
X135360207Y-58061135D01*
X135708820Y-58305237D01*
X135717402Y-58311822D01*
X136043420Y-58585383D01*
X136051395Y-58592692D01*
X136352307Y-58893604D01*
X136359616Y-58901579D01*
X136633177Y-59227597D01*
X136639762Y-59236179D01*
X136883864Y-59584792D01*
X136889676Y-59593916D01*
X137102459Y-59962467D01*
X137107454Y-59972062D01*
X137287310Y-60357764D01*
X137291450Y-60367759D01*
X137437003Y-60767664D01*
X137440256Y-60777980D01*
X137550405Y-61189061D01*
X137552746Y-61199623D01*
X137626644Y-61618725D01*
X137628056Y-61629450D01*
X137665206Y-62054073D01*
X137665671Y-62063527D01*
X137667993Y-62276357D01*
X137668000Y-62277710D01*
X137668000Y-86185289D01*
X137667993Y-86186642D01*
X137665671Y-86399472D01*
X137665206Y-86408926D01*
X137628056Y-86833549D01*
X137626644Y-86844274D01*
X137552746Y-87263376D01*
X137550405Y-87273938D01*
X137440256Y-87685019D01*
X137437003Y-87695335D01*
X137291450Y-88095240D01*
X137287310Y-88105235D01*
X137107454Y-88490937D01*
X137102459Y-88500532D01*
X136889676Y-88869083D01*
X136883864Y-88878207D01*
X136639762Y-89226820D01*
X136633177Y-89235402D01*
X136359616Y-89561420D01*
X136352307Y-89569395D01*
X136051395Y-89870307D01*
X136043420Y-89877616D01*
X135717402Y-90151177D01*
X135708820Y-90157762D01*
X135360207Y-90401864D01*
X135351083Y-90407676D01*
X134982532Y-90620459D01*
X134972937Y-90625454D01*
X134587235Y-90805310D01*
X134577240Y-90809450D01*
X134177335Y-90955003D01*
X134167019Y-90958256D01*
X133755938Y-91068405D01*
X133745376Y-91070746D01*
X133326274Y-91144644D01*
X133315549Y-91146056D01*
X132890926Y-91183206D01*
X132881472Y-91183671D01*
X132673455Y-91185940D01*
X132668640Y-91185993D01*
X132667290Y-91186000D01*
X114093710Y-91186000D01*
X114092359Y-91185993D01*
X114087454Y-91185939D01*
X113879527Y-91183671D01*
X113870073Y-91183206D01*
X113445450Y-91146056D01*
X113434725Y-91144644D01*
X113015623Y-91070746D01*
X113005061Y-91068405D01*
X112593980Y-90958256D01*
X112583664Y-90955003D01*
X112183759Y-90809450D01*
X112173764Y-90805310D01*
X111788062Y-90625454D01*
X111778467Y-90620459D01*
X111409916Y-90407676D01*
X111400792Y-90401864D01*
X111052179Y-90157762D01*
X111043597Y-90151177D01*
X110717579Y-89877616D01*
X110709604Y-89870307D01*
X110408692Y-89569395D01*
X110401383Y-89561420D01*
X110298687Y-89439032D01*
X110127821Y-89235401D01*
X110121237Y-89226820D01*
X109877132Y-88878203D01*
X109871323Y-88869083D01*
X109658540Y-88500532D01*
X109653545Y-88490937D01*
X109548189Y-88265000D01*
X109473683Y-88105221D01*
X109469555Y-88095255D01*
X109323992Y-87695322D01*
X109320747Y-87685033D01*
X109210590Y-87273921D01*
X109208256Y-87263393D01*
X109134354Y-86844270D01*
X109132943Y-86833549D01*
X109095792Y-86408915D01*
X109095328Y-86399471D01*
X109093007Y-86186641D01*
X109093000Y-86185289D01*
X109093000Y-75319135D01*
X110660500Y-75319135D01*
X110660500Y-76414870D01*
X110660501Y-76414876D01*
X110666908Y-76474483D01*
X110717202Y-76609328D01*
X110717206Y-76609335D01*
X110803452Y-76724544D01*
X110803455Y-76724547D01*
X110918664Y-76810793D01*
X110918671Y-76810797D01*
X111053517Y-76861091D01*
X111053516Y-76861091D01*
X111060444Y-76861835D01*
X111113127Y-76867500D01*
X111958872Y-76867499D01*
X112018483Y-76861091D01*
X112153331Y-76810796D01*
X112268546Y-76724546D01*
X112354796Y-76609331D01*
X112405091Y-76474483D01*
X112411500Y-76414873D01*
X112411500Y-76414844D01*
X114411000Y-76414844D01*
X114417401Y-76474372D01*
X114417403Y-76474379D01*
X114467645Y-76609086D01*
X114467649Y-76609093D01*
X114553809Y-76724187D01*
X114553812Y-76724190D01*
X114668906Y-76810350D01*
X114668913Y-76810354D01*
X114803620Y-76860596D01*
X114803627Y-76860598D01*
X114863155Y-76866999D01*
X114863172Y-76867000D01*
X115036000Y-76867000D01*
X115536000Y-76867000D01*
X115708828Y-76867000D01*
X115708844Y-76866999D01*
X115768372Y-76860598D01*
X115768379Y-76860596D01*
X115903086Y-76810354D01*
X115903093Y-76810350D01*
X116018187Y-76724190D01*
X116018190Y-76724187D01*
X116104350Y-76609093D01*
X116104354Y-76609086D01*
X116154596Y-76474379D01*
X116154598Y-76474372D01*
X116160999Y-76414844D01*
X116161000Y-76414827D01*
X116161000Y-76117000D01*
X115536000Y-76117000D01*
X115536000Y-76867000D01*
X115036000Y-76867000D01*
X115036000Y-76117000D01*
X114411000Y-76117000D01*
X114411000Y-76414844D01*
X112411500Y-76414844D01*
X112411499Y-75319155D01*
X114411000Y-75319155D01*
X114411000Y-75617000D01*
X115036000Y-75617000D01*
X115536000Y-75617000D01*
X116161000Y-75617000D01*
X116161000Y-75319172D01*
X116160999Y-75319155D01*
X116154598Y-75259627D01*
X116154596Y-75259620D01*
X116104354Y-75124913D01*
X116104350Y-75124906D01*
X116018190Y-75009812D01*
X116018187Y-75009809D01*
X115903093Y-74923649D01*
X115903086Y-74923645D01*
X115768379Y-74873403D01*
X115768372Y-74873401D01*
X115708844Y-74867000D01*
X115536000Y-74867000D01*
X115536000Y-75617000D01*
X115036000Y-75617000D01*
X115036000Y-74867000D01*
X114863155Y-74867000D01*
X114803627Y-74873401D01*
X114803620Y-74873403D01*
X114668913Y-74923645D01*
X114668906Y-74923649D01*
X114553812Y-75009809D01*
X114553809Y-75009812D01*
X114467649Y-75124906D01*
X114467645Y-75124913D01*
X114417403Y-75259620D01*
X114417401Y-75259627D01*
X114411000Y-75319155D01*
X112411499Y-75319155D01*
X112411499Y-75319128D01*
X112405091Y-75259517D01*
X112366012Y-75154742D01*
X112354797Y-75124671D01*
X112354793Y-75124664D01*
X112268548Y-75009457D01*
X112268546Y-75009454D01*
X112268542Y-75009451D01*
X112211188Y-74966515D01*
X112169318Y-74910581D01*
X112161500Y-74867249D01*
X112161500Y-74829451D01*
X112181185Y-74762412D01*
X112197814Y-74741774D01*
X113158771Y-73780817D01*
X113220094Y-73747333D01*
X113246452Y-73744499D01*
X113911002Y-73744499D01*
X113911008Y-73744499D01*
X114013797Y-73733999D01*
X114180334Y-73678814D01*
X114329656Y-73586712D01*
X114453712Y-73462656D01*
X114545814Y-73313334D01*
X114600999Y-73146797D01*
X114611500Y-73044009D01*
X114611499Y-72243992D01*
X114600999Y-72141203D01*
X114545814Y-71974666D01*
X114453712Y-71825344D01*
X114360049Y-71731681D01*
X114326564Y-71670358D01*
X114331548Y-71600666D01*
X114360049Y-71556319D01*
X114392049Y-71524319D01*
X114453712Y-71462656D01*
X114545814Y-71313334D01*
X114600999Y-71146797D01*
X114611500Y-71044009D01*
X114611499Y-70243992D01*
X114600999Y-70141203D01*
X114545814Y-69974666D01*
X114453712Y-69825344D01*
X114329656Y-69701288D01*
X114180334Y-69609186D01*
X114163591Y-69603638D01*
X114106148Y-69563866D01*
X114079325Y-69499350D01*
X114091640Y-69430575D01*
X114110448Y-69402960D01*
X114117114Y-69395557D01*
X114143533Y-69366216D01*
X114238179Y-69202284D01*
X114296674Y-69022256D01*
X114316460Y-68834000D01*
X114296674Y-68645744D01*
X114238179Y-68465716D01*
X114152655Y-68317585D01*
X114136183Y-68249686D01*
X114159036Y-68183659D01*
X114202745Y-68147279D01*
X114202329Y-68146605D01*
X114207066Y-68143682D01*
X114207648Y-68143199D01*
X114208464Y-68142817D01*
X114208476Y-68142814D01*
X114357798Y-68050712D01*
X114481854Y-67926656D01*
X114573956Y-67777334D01*
X114629141Y-67610797D01*
X114639642Y-67508009D01*
X114639641Y-66757992D01*
X114638006Y-66741991D01*
X114629141Y-66655203D01*
X114629140Y-66655200D01*
X114623838Y-66639200D01*
X114573956Y-66488666D01*
X114481854Y-66339344D01*
X114357798Y-66215288D01*
X114354961Y-66213538D01*
X114353425Y-66211830D01*
X114352131Y-66210807D01*
X114352305Y-66210585D01*
X114308238Y-66161594D01*
X114297014Y-66092632D01*
X114324855Y-66028549D01*
X114354959Y-66002462D01*
X114357798Y-66000712D01*
X114481854Y-65876656D01*
X114573956Y-65727334D01*
X114629141Y-65560797D01*
X114639642Y-65458009D01*
X114639641Y-64707992D01*
X114638006Y-64691991D01*
X114629141Y-64605203D01*
X114629140Y-64605200D01*
X114620780Y-64579971D01*
X114573956Y-64438666D01*
X114481854Y-64289344D01*
X114357798Y-64165288D01*
X114208476Y-64073186D01*
X114160191Y-64057186D01*
X114121495Y-64044363D01*
X114064050Y-64004589D01*
X114037228Y-63940073D01*
X114036500Y-63926657D01*
X114036500Y-63894016D01*
X114056185Y-63826977D01*
X114108989Y-63781222D01*
X114121488Y-63776313D01*
X114180334Y-63756814D01*
X114329656Y-63664712D01*
X114453712Y-63540656D01*
X114545814Y-63391334D01*
X114600999Y-63224797D01*
X114611500Y-63122009D01*
X114611499Y-63106454D01*
X114631180Y-63039417D01*
X114683982Y-62993659D01*
X114753139Y-62983712D01*
X114816697Y-63012734D01*
X114823180Y-63018770D01*
X116729181Y-64924771D01*
X116762666Y-64986094D01*
X116765500Y-65012452D01*
X116765500Y-82654609D01*
X116771843Y-82686496D01*
X116771843Y-82686501D01*
X116771844Y-82686501D01*
X116779410Y-82724543D01*
X116789535Y-82775444D01*
X116789536Y-82775446D01*
X116789537Y-82775451D01*
X116836688Y-82889286D01*
X116870233Y-82939489D01*
X116870914Y-82940507D01*
X116870915Y-82940509D01*
X116905141Y-82991733D01*
X116996586Y-83083178D01*
X116996608Y-83083198D01*
X117626229Y-83712819D01*
X117659714Y-83774142D01*
X117654730Y-83843834D01*
X117612858Y-83899767D01*
X117547394Y-83924184D01*
X117538548Y-83924500D01*
X114529452Y-83924500D01*
X114462413Y-83904815D01*
X114441771Y-83888181D01*
X112968434Y-82414844D01*
X114411000Y-82414844D01*
X114417401Y-82474372D01*
X114417403Y-82474379D01*
X114467645Y-82609086D01*
X114467649Y-82609093D01*
X114553809Y-82724187D01*
X114553812Y-82724190D01*
X114668906Y-82810350D01*
X114668913Y-82810354D01*
X114803620Y-82860596D01*
X114803627Y-82860598D01*
X114863155Y-82866999D01*
X114863172Y-82867000D01*
X115036000Y-82867000D01*
X115536000Y-82867000D01*
X115708828Y-82867000D01*
X115708844Y-82866999D01*
X115768372Y-82860598D01*
X115768379Y-82860596D01*
X115903086Y-82810354D01*
X115903093Y-82810350D01*
X116018187Y-82724190D01*
X116018190Y-82724187D01*
X116104350Y-82609093D01*
X116104354Y-82609086D01*
X116154596Y-82474379D01*
X116154598Y-82474372D01*
X116160999Y-82414844D01*
X116161000Y-82414827D01*
X116161000Y-82117000D01*
X115536000Y-82117000D01*
X115536000Y-82867000D01*
X115036000Y-82867000D01*
X115036000Y-82117000D01*
X114411000Y-82117000D01*
X114411000Y-82414844D01*
X112968434Y-82414844D01*
X112447818Y-81894228D01*
X112414333Y-81832905D01*
X112411499Y-81806547D01*
X112411499Y-81319155D01*
X114411000Y-81319155D01*
X114411000Y-81617000D01*
X115036000Y-81617000D01*
X115536000Y-81617000D01*
X116161000Y-81617000D01*
X116161000Y-81319172D01*
X116160999Y-81319155D01*
X116154598Y-81259627D01*
X116154596Y-81259620D01*
X116104354Y-81124913D01*
X116104350Y-81124906D01*
X116018190Y-81009812D01*
X116018187Y-81009809D01*
X115903093Y-80923649D01*
X115903086Y-80923645D01*
X115768379Y-80873403D01*
X115768372Y-80873401D01*
X115708844Y-80867000D01*
X115536000Y-80867000D01*
X115536000Y-81617000D01*
X115036000Y-81617000D01*
X115036000Y-80867000D01*
X114863155Y-80867000D01*
X114803627Y-80873401D01*
X114803620Y-80873403D01*
X114668913Y-80923645D01*
X114668906Y-80923649D01*
X114553812Y-81009809D01*
X114553809Y-81009812D01*
X114467649Y-81124906D01*
X114467645Y-81124913D01*
X114417403Y-81259620D01*
X114417401Y-81259627D01*
X114411000Y-81319155D01*
X112411499Y-81319155D01*
X112411499Y-81319129D01*
X112411498Y-81319123D01*
X112411497Y-81319116D01*
X112405091Y-81259517D01*
X112366012Y-81154742D01*
X112354797Y-81124671D01*
X112354793Y-81124664D01*
X112268547Y-81009455D01*
X112268544Y-81009452D01*
X112153335Y-80923206D01*
X112153328Y-80923202D01*
X112018482Y-80872908D01*
X112018483Y-80872908D01*
X111958883Y-80866501D01*
X111958881Y-80866500D01*
X111958873Y-80866500D01*
X111958864Y-80866500D01*
X111113129Y-80866500D01*
X111113123Y-80866501D01*
X111053516Y-80872908D01*
X110918671Y-80923202D01*
X110918664Y-80923206D01*
X110803455Y-81009452D01*
X110803452Y-81009455D01*
X110717206Y-81124664D01*
X110717202Y-81124671D01*
X110666908Y-81259517D01*
X110660501Y-81319116D01*
X110660501Y-81319123D01*
X110660500Y-81319135D01*
X110660500Y-82414870D01*
X110660501Y-82414876D01*
X110666908Y-82474483D01*
X110717202Y-82609328D01*
X110717206Y-82609335D01*
X110803451Y-82724543D01*
X110803455Y-82724547D01*
X110918664Y-82810793D01*
X110918671Y-82810797D01*
X110952502Y-82823415D01*
X111053517Y-82861091D01*
X111113127Y-82867500D01*
X111600547Y-82867499D01*
X111667586Y-82887183D01*
X111688228Y-82903818D01*
X113730016Y-84945606D01*
X113730045Y-84945637D01*
X113820264Y-85035856D01*
X113820267Y-85035858D01*
X113871490Y-85070084D01*
X113922714Y-85104312D01*
X114003207Y-85137652D01*
X114036548Y-85151463D01*
X114096971Y-85163481D01*
X114157393Y-85175500D01*
X114157394Y-85175500D01*
X116571015Y-85175500D01*
X116638054Y-85195185D01*
X116683809Y-85247989D01*
X116693753Y-85317147D01*
X116690790Y-85331594D01*
X116652364Y-85474999D01*
X116652364Y-85475000D01*
X117549988Y-85475000D01*
X117517075Y-85532007D01*
X117483000Y-85659174D01*
X117483000Y-85790826D01*
X117517075Y-85917993D01*
X117549988Y-85975000D01*
X116652364Y-85975000D01*
X116709567Y-86188486D01*
X116709570Y-86188492D01*
X116809399Y-86402578D01*
X116944894Y-86596082D01*
X117111917Y-86763105D01*
X117297595Y-86893119D01*
X117341219Y-86947696D01*
X117348412Y-87017195D01*
X117316890Y-87079549D01*
X117297595Y-87096269D01*
X117111594Y-87226508D01*
X116944505Y-87393597D01*
X116808965Y-87587169D01*
X116808964Y-87587171D01*
X116709098Y-87801335D01*
X116709094Y-87801344D01*
X116647938Y-88029586D01*
X116647936Y-88029596D01*
X116627341Y-88264999D01*
X116627341Y-88265000D01*
X116647936Y-88500403D01*
X116647938Y-88500413D01*
X116709094Y-88728655D01*
X116709096Y-88728659D01*
X116709097Y-88728663D01*
X116713000Y-88737032D01*
X116808965Y-88942830D01*
X116808967Y-88942834D01*
X116917281Y-89097521D01*
X116944505Y-89136401D01*
X117111599Y-89303495D01*
X117208384Y-89371265D01*
X117305165Y-89439032D01*
X117305167Y-89439033D01*
X117305170Y-89439035D01*
X117519337Y-89538903D01*
X117747592Y-89600063D01*
X117935918Y-89616539D01*
X117982999Y-89620659D01*
X117983000Y-89620659D01*
X117983001Y-89620659D01*
X118022234Y-89617226D01*
X118218408Y-89600063D01*
X118446663Y-89538903D01*
X118660830Y-89439035D01*
X118854401Y-89303495D01*
X119021495Y-89136401D01*
X119151425Y-88950842D01*
X119206002Y-88907217D01*
X119275500Y-88900023D01*
X119337855Y-88931546D01*
X119354575Y-88950842D01*
X119484500Y-89136395D01*
X119484505Y-89136401D01*
X119651599Y-89303495D01*
X119748384Y-89371265D01*
X119845165Y-89439032D01*
X119845167Y-89439033D01*
X119845170Y-89439035D01*
X120059337Y-89538903D01*
X120287592Y-89600063D01*
X120475918Y-89616539D01*
X120522999Y-89620659D01*
X120523000Y-89620659D01*
X120523001Y-89620659D01*
X120562234Y-89617226D01*
X120758408Y-89600063D01*
X120986663Y-89538903D01*
X121200830Y-89439035D01*
X121394401Y-89303495D01*
X121561495Y-89136401D01*
X121691425Y-88950842D01*
X121746002Y-88907217D01*
X121815500Y-88900023D01*
X121877855Y-88931546D01*
X121894575Y-88950842D01*
X122024500Y-89136395D01*
X122024505Y-89136401D01*
X122191599Y-89303495D01*
X122288384Y-89371265D01*
X122385165Y-89439032D01*
X122385167Y-89439033D01*
X122385170Y-89439035D01*
X122599337Y-89538903D01*
X122827592Y-89600063D01*
X123015918Y-89616539D01*
X123062999Y-89620659D01*
X123063000Y-89620659D01*
X123063001Y-89620659D01*
X123102234Y-89617226D01*
X123298408Y-89600063D01*
X123526663Y-89538903D01*
X123740830Y-89439035D01*
X123934401Y-89303495D01*
X124101495Y-89136401D01*
X124231425Y-88950842D01*
X124286002Y-88907217D01*
X124355500Y-88900023D01*
X124417855Y-88931546D01*
X124434575Y-88950842D01*
X124564500Y-89136395D01*
X124564505Y-89136401D01*
X124731599Y-89303495D01*
X124828384Y-89371265D01*
X124925165Y-89439032D01*
X124925167Y-89439033D01*
X124925170Y-89439035D01*
X125139337Y-89538903D01*
X125367592Y-89600063D01*
X125555918Y-89616539D01*
X125602999Y-89620659D01*
X125603000Y-89620659D01*
X125603001Y-89620659D01*
X125642234Y-89617226D01*
X125838408Y-89600063D01*
X126066663Y-89538903D01*
X126280830Y-89439035D01*
X126474401Y-89303495D01*
X126641495Y-89136401D01*
X126771425Y-88950842D01*
X126826002Y-88907217D01*
X126895500Y-88900023D01*
X126957855Y-88931546D01*
X126974575Y-88950842D01*
X127104500Y-89136395D01*
X127104505Y-89136401D01*
X127271599Y-89303495D01*
X127368384Y-89371265D01*
X127465165Y-89439032D01*
X127465167Y-89439033D01*
X127465170Y-89439035D01*
X127679337Y-89538903D01*
X127907592Y-89600063D01*
X128095918Y-89616539D01*
X128142999Y-89620659D01*
X128143000Y-89620659D01*
X128143001Y-89620659D01*
X128182234Y-89617226D01*
X128378408Y-89600063D01*
X128606663Y-89538903D01*
X128820830Y-89439035D01*
X129014401Y-89303495D01*
X129181495Y-89136401D01*
X129317035Y-88942830D01*
X129416903Y-88728663D01*
X129478063Y-88500408D01*
X129498659Y-88265000D01*
X129478063Y-88029592D01*
X129451143Y-87929125D01*
X129452806Y-87859276D01*
X129483235Y-87809353D01*
X131599729Y-85692860D01*
X131599733Y-85692858D01*
X131686858Y-85605733D01*
X131734398Y-85534585D01*
X131755312Y-85503286D01*
X131802463Y-85389451D01*
X131826500Y-85268607D01*
X131826500Y-85145393D01*
X131826500Y-82866749D01*
X131846185Y-82799710D01*
X131876190Y-82767482D01*
X131933546Y-82724546D01*
X132019796Y-82609331D01*
X132070091Y-82474483D01*
X132076500Y-82414873D01*
X132076500Y-82414844D01*
X134076000Y-82414844D01*
X134082401Y-82474372D01*
X134082403Y-82474379D01*
X134132645Y-82609086D01*
X134132649Y-82609093D01*
X134218809Y-82724187D01*
X134218812Y-82724190D01*
X134333906Y-82810350D01*
X134333913Y-82810354D01*
X134468620Y-82860596D01*
X134468627Y-82860598D01*
X134528155Y-82866999D01*
X134528172Y-82867000D01*
X134701000Y-82867000D01*
X135201000Y-82867000D01*
X135373828Y-82867000D01*
X135373844Y-82866999D01*
X135433372Y-82860598D01*
X135433379Y-82860596D01*
X135568086Y-82810354D01*
X135568093Y-82810350D01*
X135683187Y-82724190D01*
X135683190Y-82724187D01*
X135769350Y-82609093D01*
X135769354Y-82609086D01*
X135819596Y-82474379D01*
X135819598Y-82474372D01*
X135825999Y-82414844D01*
X135826000Y-82414827D01*
X135826000Y-82117000D01*
X135201000Y-82117000D01*
X135201000Y-82867000D01*
X134701000Y-82867000D01*
X134701000Y-82117000D01*
X134076000Y-82117000D01*
X134076000Y-82414844D01*
X132076500Y-82414844D01*
X132076499Y-81319155D01*
X134076000Y-81319155D01*
X134076000Y-81617000D01*
X134701000Y-81617000D01*
X135201000Y-81617000D01*
X135826000Y-81617000D01*
X135826000Y-81319172D01*
X135825999Y-81319155D01*
X135819598Y-81259627D01*
X135819596Y-81259620D01*
X135769354Y-81124913D01*
X135769350Y-81124906D01*
X135683190Y-81009812D01*
X135683187Y-81009809D01*
X135568093Y-80923649D01*
X135568086Y-80923645D01*
X135433379Y-80873403D01*
X135433372Y-80873401D01*
X135373844Y-80867000D01*
X135201000Y-80867000D01*
X135201000Y-81617000D01*
X134701000Y-81617000D01*
X134701000Y-80867000D01*
X134528155Y-80867000D01*
X134468627Y-80873401D01*
X134468620Y-80873403D01*
X134333913Y-80923645D01*
X134333906Y-80923649D01*
X134218812Y-81009809D01*
X134218809Y-81009812D01*
X134132649Y-81124906D01*
X134132645Y-81124913D01*
X134082403Y-81259620D01*
X134082401Y-81259627D01*
X134076000Y-81319155D01*
X132076499Y-81319155D01*
X132076499Y-81319128D01*
X132070091Y-81259517D01*
X132031012Y-81154742D01*
X132019797Y-81124671D01*
X132019793Y-81124664D01*
X131933547Y-81009455D01*
X131933544Y-81009452D01*
X131818335Y-80923206D01*
X131818328Y-80923202D01*
X131683482Y-80872908D01*
X131683483Y-80872908D01*
X131623883Y-80866501D01*
X131623881Y-80866500D01*
X131623873Y-80866500D01*
X131623864Y-80866500D01*
X130778129Y-80866500D01*
X130778123Y-80866501D01*
X130718516Y-80872908D01*
X130583671Y-80923202D01*
X130583664Y-80923206D01*
X130468455Y-81009452D01*
X130468452Y-81009455D01*
X130394766Y-81107887D01*
X130338832Y-81149758D01*
X130269141Y-81154742D01*
X130207818Y-81121256D01*
X130174334Y-81059933D01*
X130171500Y-81033576D01*
X130171500Y-76700423D01*
X130191185Y-76633384D01*
X130243989Y-76587629D01*
X130313147Y-76577685D01*
X130376703Y-76606710D01*
X130394763Y-76626107D01*
X130468454Y-76724546D01*
X130514643Y-76759123D01*
X130583664Y-76810793D01*
X130583671Y-76810797D01*
X130718517Y-76861091D01*
X130718516Y-76861091D01*
X130725444Y-76861835D01*
X130778127Y-76867500D01*
X131623872Y-76867499D01*
X131683483Y-76861091D01*
X131818331Y-76810796D01*
X131933546Y-76724546D01*
X132019796Y-76609331D01*
X132070091Y-76474483D01*
X132076500Y-76414873D01*
X132076500Y-76414844D01*
X134076000Y-76414844D01*
X134082401Y-76474372D01*
X134082403Y-76474379D01*
X134132645Y-76609086D01*
X134132649Y-76609093D01*
X134218809Y-76724187D01*
X134218812Y-76724190D01*
X134333906Y-76810350D01*
X134333913Y-76810354D01*
X134468620Y-76860596D01*
X134468627Y-76860598D01*
X134528155Y-76866999D01*
X134528172Y-76867000D01*
X134701000Y-76867000D01*
X135201000Y-76867000D01*
X135373828Y-76867000D01*
X135373844Y-76866999D01*
X135433372Y-76860598D01*
X135433379Y-76860596D01*
X135568086Y-76810354D01*
X135568093Y-76810350D01*
X135683187Y-76724190D01*
X135683190Y-76724187D01*
X135769350Y-76609093D01*
X135769354Y-76609086D01*
X135819596Y-76474379D01*
X135819598Y-76474372D01*
X135825999Y-76414844D01*
X135826000Y-76414827D01*
X135826000Y-76117000D01*
X135201000Y-76117000D01*
X135201000Y-76867000D01*
X134701000Y-76867000D01*
X134701000Y-76117000D01*
X134076000Y-76117000D01*
X134076000Y-76414844D01*
X132076500Y-76414844D01*
X132076499Y-75927450D01*
X132096183Y-75860412D01*
X132112813Y-75839775D01*
X132633434Y-75319155D01*
X134076000Y-75319155D01*
X134076000Y-75617000D01*
X134701000Y-75617000D01*
X135201000Y-75617000D01*
X135826000Y-75617000D01*
X135826000Y-75319172D01*
X135825999Y-75319155D01*
X135819598Y-75259627D01*
X135819596Y-75259620D01*
X135769354Y-75124913D01*
X135769350Y-75124906D01*
X135683190Y-75009812D01*
X135683187Y-75009809D01*
X135568093Y-74923649D01*
X135568086Y-74923645D01*
X135433379Y-74873403D01*
X135433372Y-74873401D01*
X135373844Y-74867000D01*
X135201000Y-74867000D01*
X135201000Y-75617000D01*
X134701000Y-75617000D01*
X134701000Y-74867000D01*
X134528155Y-74867000D01*
X134468627Y-74873401D01*
X134468620Y-74873403D01*
X134333913Y-74923645D01*
X134333906Y-74923649D01*
X134218812Y-75009809D01*
X134218809Y-75009812D01*
X134132649Y-75124906D01*
X134132645Y-75124913D01*
X134082403Y-75259620D01*
X134082401Y-75259627D01*
X134076000Y-75319155D01*
X132633434Y-75319155D01*
X133581858Y-74370733D01*
X133650312Y-74268285D01*
X133697463Y-74154451D01*
X133721501Y-74033606D01*
X133721501Y-73910393D01*
X133721501Y-73905283D01*
X133721500Y-73905257D01*
X133721500Y-73784016D01*
X133741185Y-73716977D01*
X133793989Y-73671222D01*
X133806488Y-73666313D01*
X133865334Y-73646814D01*
X134014656Y-73554712D01*
X134138712Y-73430656D01*
X134230814Y-73281334D01*
X134285999Y-73114797D01*
X134296500Y-73012009D01*
X134296499Y-72211992D01*
X134285999Y-72109203D01*
X134230814Y-71942666D01*
X134138712Y-71793344D01*
X134045049Y-71699681D01*
X134011564Y-71638358D01*
X134016548Y-71568666D01*
X134045049Y-71524319D01*
X134138712Y-71430656D01*
X134230814Y-71281334D01*
X134285999Y-71114797D01*
X134296500Y-71012009D01*
X134296499Y-70211992D01*
X134285999Y-70109203D01*
X134230814Y-69942666D01*
X134138712Y-69793344D01*
X134014656Y-69669288D01*
X133917208Y-69609182D01*
X133865336Y-69577187D01*
X133858791Y-69574136D01*
X133860001Y-69571538D01*
X133813302Y-69539172D01*
X133786511Y-69474643D01*
X133798859Y-69405874D01*
X133817636Y-69378317D01*
X133828533Y-69366216D01*
X133923179Y-69202284D01*
X133981674Y-69022256D01*
X134001460Y-68834000D01*
X133981674Y-68645744D01*
X133923179Y-68465716D01*
X133828533Y-68301784D01*
X133823784Y-68296510D01*
X133793555Y-68233520D01*
X133802179Y-68164185D01*
X133846919Y-68110519D01*
X133850838Y-68107999D01*
X133969656Y-68034712D01*
X134093712Y-67910656D01*
X134185814Y-67761334D01*
X134240999Y-67594797D01*
X134251500Y-67492009D01*
X134251499Y-66741992D01*
X134240999Y-66639203D01*
X134185814Y-66472666D01*
X134093712Y-66323344D01*
X133969656Y-66199288D01*
X133966819Y-66197538D01*
X133965283Y-66195830D01*
X133963989Y-66194807D01*
X133964163Y-66194585D01*
X133920096Y-66145594D01*
X133908872Y-66076632D01*
X133936713Y-66012549D01*
X133966817Y-65986462D01*
X133969656Y-65984712D01*
X134093712Y-65860656D01*
X134185814Y-65711334D01*
X134240999Y-65544797D01*
X134251500Y-65442009D01*
X134251499Y-64691992D01*
X134246227Y-64640386D01*
X134240999Y-64589203D01*
X134240998Y-64589200D01*
X134237940Y-64579971D01*
X134185814Y-64422666D01*
X134093712Y-64273344D01*
X133969656Y-64149288D01*
X133820334Y-64057186D01*
X133761493Y-64037688D01*
X133704051Y-63997916D01*
X133677228Y-63933400D01*
X133676500Y-63919983D01*
X133676500Y-63868691D01*
X133696185Y-63801652D01*
X133748989Y-63755897D01*
X133761494Y-63750986D01*
X133792192Y-63740814D01*
X133941514Y-63648712D01*
X134065570Y-63524656D01*
X134157672Y-63375334D01*
X134212857Y-63208797D01*
X134223358Y-63106009D01*
X134223357Y-62305992D01*
X134212857Y-62203203D01*
X134157672Y-62036666D01*
X134065570Y-61887344D01*
X133971907Y-61793681D01*
X133938422Y-61732358D01*
X133943406Y-61662666D01*
X133971907Y-61618319D01*
X134013537Y-61576689D01*
X134065570Y-61524656D01*
X134157672Y-61375334D01*
X134212857Y-61208797D01*
X134223358Y-61106009D01*
X134223357Y-60305992D01*
X134212857Y-60203203D01*
X134157672Y-60036666D01*
X134065570Y-59887344D01*
X133941514Y-59763288D01*
X133792192Y-59671186D01*
X133625655Y-59616001D01*
X133625653Y-59616000D01*
X133522868Y-59605500D01*
X132522856Y-59605500D01*
X132522838Y-59605501D01*
X132420061Y-59616000D01*
X132420058Y-59616001D01*
X132253526Y-59671185D01*
X132253521Y-59671187D01*
X132104200Y-59763289D01*
X131980147Y-59887342D01*
X131888045Y-60036663D01*
X131888044Y-60036666D01*
X131832859Y-60203203D01*
X131832859Y-60203204D01*
X131832858Y-60203204D01*
X131822358Y-60305983D01*
X131822358Y-60970547D01*
X131802673Y-61037586D01*
X131786039Y-61058228D01*
X129806458Y-63037808D01*
X129745135Y-63071293D01*
X129675443Y-63066309D01*
X129619510Y-63024437D01*
X129615676Y-63019019D01*
X129604496Y-63002288D01*
X129604494Y-63002286D01*
X129581858Y-62968409D01*
X129581856Y-62968406D01*
X129491637Y-62878187D01*
X129491606Y-62878158D01*
X127671676Y-61058228D01*
X127638191Y-60996905D01*
X127635357Y-60970547D01*
X127635357Y-60305998D01*
X127635356Y-60305981D01*
X127624857Y-60203203D01*
X127624856Y-60203200D01*
X127569672Y-60036666D01*
X127477570Y-59887344D01*
X127353514Y-59763288D01*
X127204192Y-59671186D01*
X127037655Y-59616001D01*
X127037653Y-59616000D01*
X126934868Y-59605500D01*
X125934856Y-59605500D01*
X125934838Y-59605501D01*
X125832061Y-59616000D01*
X125832058Y-59616001D01*
X125665526Y-59671185D01*
X125665521Y-59671187D01*
X125516200Y-59763289D01*
X125392147Y-59887342D01*
X125300045Y-60036663D01*
X125300044Y-60036666D01*
X125244859Y-60203203D01*
X125244859Y-60203204D01*
X125244858Y-60203204D01*
X125234358Y-60305983D01*
X125234358Y-61106001D01*
X125234359Y-61106019D01*
X125244858Y-61208796D01*
X125244859Y-61208799D01*
X125295097Y-61360405D01*
X125300044Y-61375334D01*
X125354026Y-61462854D01*
X125392147Y-61524657D01*
X125485809Y-61618319D01*
X125519294Y-61679642D01*
X125514310Y-61749334D01*
X125485809Y-61793681D01*
X125392147Y-61887342D01*
X125300045Y-62036663D01*
X125300044Y-62036666D01*
X125244859Y-62203203D01*
X125244859Y-62203204D01*
X125244858Y-62203204D01*
X125234358Y-62305983D01*
X125234358Y-63106001D01*
X125234359Y-63106019D01*
X125244858Y-63208796D01*
X125244859Y-63208799D01*
X125300043Y-63375331D01*
X125300044Y-63375334D01*
X125392146Y-63524656D01*
X125516202Y-63648712D01*
X125665521Y-63740812D01*
X125665526Y-63740815D01*
X125685968Y-63747588D01*
X125724360Y-63760310D01*
X125781805Y-63800081D01*
X125808630Y-63864596D01*
X125809358Y-63878016D01*
X125809358Y-63929308D01*
X125789673Y-63996347D01*
X125736869Y-64042102D01*
X125724363Y-64047014D01*
X125693666Y-64057186D01*
X125544342Y-64149289D01*
X125420289Y-64273342D01*
X125328187Y-64422663D01*
X125328185Y-64422668D01*
X125309471Y-64479143D01*
X125273001Y-64589203D01*
X125273001Y-64589204D01*
X125273000Y-64589204D01*
X125262500Y-64691983D01*
X125262500Y-65442001D01*
X125262501Y-65442019D01*
X125273000Y-65544796D01*
X125273001Y-65544799D01*
X125328185Y-65711331D01*
X125328187Y-65711336D01*
X125420289Y-65860657D01*
X125544346Y-65984714D01*
X125547182Y-65986463D01*
X125548717Y-65988170D01*
X125550011Y-65989193D01*
X125549836Y-65989414D01*
X125593905Y-66038411D01*
X125605126Y-66107374D01*
X125577282Y-66171456D01*
X125547182Y-66197537D01*
X125544346Y-66199285D01*
X125420289Y-66323342D01*
X125328187Y-66472663D01*
X125328186Y-66472666D01*
X125273001Y-66639203D01*
X125273001Y-66639204D01*
X125273000Y-66639204D01*
X125262500Y-66741983D01*
X125262500Y-67492001D01*
X125262501Y-67492019D01*
X125273000Y-67594796D01*
X125273001Y-67594799D01*
X125328185Y-67761331D01*
X125328186Y-67761334D01*
X125420288Y-67910656D01*
X125544344Y-68034712D01*
X125693023Y-68126417D01*
X125739748Y-68178365D01*
X125750971Y-68247327D01*
X125732058Y-68295199D01*
X125733716Y-68296156D01*
X125635821Y-68465715D01*
X125635818Y-68465722D01*
X125577327Y-68645740D01*
X125577326Y-68645744D01*
X125557540Y-68834000D01*
X125577326Y-69022256D01*
X125577327Y-69022259D01*
X125635818Y-69202277D01*
X125635821Y-69202284D01*
X125730467Y-69366216D01*
X125752642Y-69390843D01*
X125770216Y-69410362D01*
X125800446Y-69473354D01*
X125791820Y-69542689D01*
X125747079Y-69596354D01*
X125728819Y-69605294D01*
X125729211Y-69606134D01*
X125722669Y-69609184D01*
X125573342Y-69701289D01*
X125449289Y-69825342D01*
X125357187Y-69974663D01*
X125357186Y-69974666D01*
X125302001Y-70141203D01*
X125302001Y-70141204D01*
X125302000Y-70141204D01*
X125291500Y-70243983D01*
X125291500Y-71044001D01*
X125291501Y-71044019D01*
X125302000Y-71146796D01*
X125302001Y-71146799D01*
X125346581Y-71281331D01*
X125357186Y-71313334D01*
X125429550Y-71430656D01*
X125449289Y-71462657D01*
X125542951Y-71556319D01*
X125576436Y-71617642D01*
X125571452Y-71687334D01*
X125542951Y-71731681D01*
X125449289Y-71825342D01*
X125357187Y-71974663D01*
X125357186Y-71974666D01*
X125302001Y-72141203D01*
X125302001Y-72141204D01*
X125302000Y-72141204D01*
X125291500Y-72243983D01*
X125291500Y-72908547D01*
X125271815Y-72975586D01*
X125255182Y-72996227D01*
X124247270Y-74004139D01*
X124247267Y-74004142D01*
X124218269Y-74033140D01*
X124160144Y-74091264D01*
X124140764Y-74120269D01*
X124140763Y-74120269D01*
X124091690Y-74193709D01*
X124091690Y-74193710D01*
X124091688Y-74193712D01*
X124091688Y-74193714D01*
X124060800Y-74268285D01*
X124054294Y-74283990D01*
X124044537Y-74307545D01*
X124044535Y-74307553D01*
X124020500Y-74428389D01*
X124020500Y-74867249D01*
X124000815Y-74934288D01*
X123970812Y-74966515D01*
X123913457Y-75009451D01*
X123913451Y-75009457D01*
X123827206Y-75124664D01*
X123827202Y-75124671D01*
X123776908Y-75259517D01*
X123770501Y-75319116D01*
X123770501Y-75319123D01*
X123770500Y-75319135D01*
X123770500Y-76414870D01*
X123770501Y-76414876D01*
X123776908Y-76474483D01*
X123827202Y-76609328D01*
X123827206Y-76609335D01*
X123913452Y-76724544D01*
X123913455Y-76724547D01*
X124028664Y-76810793D01*
X124028671Y-76810797D01*
X124163517Y-76861091D01*
X124163516Y-76861091D01*
X124170444Y-76861835D01*
X124223127Y-76867500D01*
X125068872Y-76867499D01*
X125128483Y-76861091D01*
X125263331Y-76810796D01*
X125378546Y-76724546D01*
X125464796Y-76609331D01*
X125515091Y-76474483D01*
X125521500Y-76414873D01*
X125521500Y-76414844D01*
X127521000Y-76414844D01*
X127527401Y-76474372D01*
X127527403Y-76474379D01*
X127577645Y-76609086D01*
X127577649Y-76609093D01*
X127663809Y-76724187D01*
X127663812Y-76724190D01*
X127778906Y-76810350D01*
X127778913Y-76810354D01*
X127913620Y-76860596D01*
X127913627Y-76860598D01*
X127973155Y-76866999D01*
X127973172Y-76867000D01*
X128146000Y-76867000D01*
X128146000Y-76117000D01*
X127521000Y-76117000D01*
X127521000Y-76414844D01*
X125521500Y-76414844D01*
X125521499Y-75319155D01*
X127521000Y-75319155D01*
X127521000Y-75617000D01*
X128146000Y-75617000D01*
X128146000Y-74867000D01*
X127973155Y-74867000D01*
X127913627Y-74873401D01*
X127913620Y-74873403D01*
X127778913Y-74923645D01*
X127778906Y-74923649D01*
X127663812Y-75009809D01*
X127663809Y-75009812D01*
X127577649Y-75124906D01*
X127577645Y-75124913D01*
X127527403Y-75259620D01*
X127527401Y-75259627D01*
X127521000Y-75319155D01*
X125521499Y-75319155D01*
X125521499Y-75319128D01*
X125515091Y-75259517D01*
X125476012Y-75154742D01*
X125464797Y-75124671D01*
X125464793Y-75124664D01*
X125378548Y-75009457D01*
X125378546Y-75009454D01*
X125378542Y-75009451D01*
X125321188Y-74966515D01*
X125279318Y-74910581D01*
X125271500Y-74867249D01*
X125271500Y-74800451D01*
X125291185Y-74733412D01*
X125307814Y-74712774D01*
X126239771Y-73780817D01*
X126301094Y-73747333D01*
X126327452Y-73744499D01*
X126992002Y-73744499D01*
X126992008Y-73744499D01*
X127094797Y-73733999D01*
X127261334Y-73678814D01*
X127410656Y-73586712D01*
X127534712Y-73462656D01*
X127626814Y-73313334D01*
X127681999Y-73146797D01*
X127692500Y-73044009D01*
X127692499Y-72243992D01*
X127681999Y-72141203D01*
X127626814Y-71974666D01*
X127534712Y-71825344D01*
X127441049Y-71731681D01*
X127407564Y-71670358D01*
X127412548Y-71600666D01*
X127441049Y-71556319D01*
X127473049Y-71524319D01*
X127534712Y-71462656D01*
X127626814Y-71313334D01*
X127681999Y-71146797D01*
X127692500Y-71044009D01*
X127692499Y-70243992D01*
X127681999Y-70141203D01*
X127626814Y-69974666D01*
X127534712Y-69825344D01*
X127410656Y-69701288D01*
X127261334Y-69609186D01*
X127261333Y-69609185D01*
X127261325Y-69609182D01*
X127222256Y-69596236D01*
X127164811Y-69556463D01*
X127137989Y-69491947D01*
X127150305Y-69423171D01*
X127169109Y-69395561D01*
X127195533Y-69366216D01*
X127290179Y-69202284D01*
X127348674Y-69022256D01*
X127368460Y-68834000D01*
X127348674Y-68645744D01*
X127290179Y-68465716D01*
X127199982Y-68309490D01*
X127192284Y-68296156D01*
X127194254Y-68295018D01*
X127174276Y-68239057D01*
X127190088Y-68171001D01*
X127232973Y-68126419D01*
X127381656Y-68034712D01*
X127505712Y-67910656D01*
X127597814Y-67761334D01*
X127652999Y-67594797D01*
X127663500Y-67492009D01*
X127663499Y-66741992D01*
X127652999Y-66639203D01*
X127597814Y-66472666D01*
X127505712Y-66323344D01*
X127381656Y-66199288D01*
X127378819Y-66197538D01*
X127377283Y-66195830D01*
X127375989Y-66194807D01*
X127376163Y-66194585D01*
X127332096Y-66145594D01*
X127320872Y-66076632D01*
X127348713Y-66012549D01*
X127378817Y-65986462D01*
X127381656Y-65984712D01*
X127505712Y-65860656D01*
X127597814Y-65711334D01*
X127652999Y-65544797D01*
X127663500Y-65442009D01*
X127663499Y-64691992D01*
X127658227Y-64640386D01*
X127652999Y-64589203D01*
X127652998Y-64589200D01*
X127649940Y-64579971D01*
X127597814Y-64422666D01*
X127505712Y-64273344D01*
X127381656Y-64149288D01*
X127232334Y-64057186D01*
X127158673Y-64032777D01*
X127145353Y-64028363D01*
X127087908Y-63988589D01*
X127061086Y-63924073D01*
X127060358Y-63910657D01*
X127060358Y-63878016D01*
X127080043Y-63810977D01*
X127132847Y-63765222D01*
X127145346Y-63760313D01*
X127204192Y-63740814D01*
X127353514Y-63648712D01*
X127477570Y-63524656D01*
X127569672Y-63375334D01*
X127624857Y-63208797D01*
X127635358Y-63106009D01*
X127635357Y-63090454D01*
X127655038Y-63023417D01*
X127707840Y-62977659D01*
X127776997Y-62967712D01*
X127840555Y-62996734D01*
X127847038Y-63002770D01*
X128434181Y-63589913D01*
X128467666Y-63651236D01*
X128470500Y-63677594D01*
X128470500Y-79508547D01*
X128450815Y-79575586D01*
X128434181Y-79596228D01*
X125733180Y-82297228D01*
X125671857Y-82330713D01*
X125602165Y-82325729D01*
X125546232Y-82283857D01*
X125521815Y-82218393D01*
X125521499Y-82209569D01*
X125521499Y-81319128D01*
X125515091Y-81259517D01*
X125476012Y-81154742D01*
X125464797Y-81124671D01*
X125464793Y-81124664D01*
X125378547Y-81009455D01*
X125378544Y-81009452D01*
X125263335Y-80923206D01*
X125263328Y-80923202D01*
X125128482Y-80872908D01*
X125128483Y-80872908D01*
X125068883Y-80866501D01*
X125068881Y-80866500D01*
X125068873Y-80866500D01*
X125068864Y-80866500D01*
X124223129Y-80866500D01*
X124223123Y-80866501D01*
X124163516Y-80872908D01*
X124028671Y-80923202D01*
X124028664Y-80923206D01*
X123913455Y-81009452D01*
X123913452Y-81009455D01*
X123827206Y-81124664D01*
X123827202Y-81124671D01*
X123776908Y-81259517D01*
X123770501Y-81319116D01*
X123770501Y-81319123D01*
X123770500Y-81319135D01*
X123770500Y-82414870D01*
X123770501Y-82414876D01*
X123776908Y-82474483D01*
X123794682Y-82522135D01*
X123802500Y-82565468D01*
X123802500Y-84385081D01*
X123782815Y-84452120D01*
X123730011Y-84497875D01*
X123660853Y-84507819D01*
X123626095Y-84497463D01*
X123619701Y-84494481D01*
X123526663Y-84451097D01*
X123526659Y-84451096D01*
X123526655Y-84451094D01*
X123298413Y-84389938D01*
X123298403Y-84389936D01*
X123063001Y-84369341D01*
X123062999Y-84369341D01*
X122827596Y-84389936D01*
X122827586Y-84389938D01*
X122727126Y-84416856D01*
X122657276Y-84415193D01*
X122607352Y-84384762D01*
X121729961Y-83507371D01*
X121696476Y-83446048D01*
X121693642Y-83419690D01*
X121693642Y-82867000D01*
X122091000Y-82867000D01*
X122263828Y-82867000D01*
X122263844Y-82866999D01*
X122323372Y-82860598D01*
X122323379Y-82860596D01*
X122458086Y-82810354D01*
X122458093Y-82810350D01*
X122573187Y-82724190D01*
X122573190Y-82724187D01*
X122659350Y-82609093D01*
X122659354Y-82609086D01*
X122709596Y-82474379D01*
X122709598Y-82474372D01*
X122715999Y-82414844D01*
X122716000Y-82414827D01*
X122716000Y-82117000D01*
X122091000Y-82117000D01*
X122091000Y-82867000D01*
X121693642Y-82867000D01*
X121693642Y-81617000D01*
X122091000Y-81617000D01*
X122716000Y-81617000D01*
X122716000Y-81319172D01*
X122715999Y-81319155D01*
X122709598Y-81259627D01*
X122709596Y-81259620D01*
X122659354Y-81124913D01*
X122659350Y-81124906D01*
X122573190Y-81009812D01*
X122573187Y-81009809D01*
X122458093Y-80923649D01*
X122458086Y-80923645D01*
X122323379Y-80873403D01*
X122323372Y-80873401D01*
X122263844Y-80867000D01*
X122091000Y-80867000D01*
X122091000Y-81617000D01*
X121693642Y-81617000D01*
X121693642Y-76867000D01*
X122091000Y-76867000D01*
X122263828Y-76867000D01*
X122263844Y-76866999D01*
X122323372Y-76860598D01*
X122323379Y-76860596D01*
X122458086Y-76810354D01*
X122458093Y-76810350D01*
X122573187Y-76724190D01*
X122573190Y-76724187D01*
X122659350Y-76609093D01*
X122659354Y-76609086D01*
X122709596Y-76474379D01*
X122709598Y-76474372D01*
X122715999Y-76414844D01*
X122716000Y-76414827D01*
X122716000Y-76117000D01*
X122091000Y-76117000D01*
X122091000Y-76867000D01*
X121693642Y-76867000D01*
X121693642Y-75617000D01*
X122091000Y-75617000D01*
X122716000Y-75617000D01*
X122716000Y-75319172D01*
X122715999Y-75319155D01*
X122709598Y-75259627D01*
X122709596Y-75259620D01*
X122659354Y-75124913D01*
X122659350Y-75124906D01*
X122573190Y-75009812D01*
X122573187Y-75009809D01*
X122458093Y-74923649D01*
X122458086Y-74923645D01*
X122323379Y-74873403D01*
X122323372Y-74873401D01*
X122263844Y-74867000D01*
X122091000Y-74867000D01*
X122091000Y-75617000D01*
X121693642Y-75617000D01*
X121693642Y-61826883D01*
X121693643Y-61826862D01*
X121693643Y-61697533D01*
X121669606Y-61576697D01*
X121669605Y-61576691D01*
X121622454Y-61462857D01*
X121554000Y-61360409D01*
X121553997Y-61360405D01*
X121251818Y-61058227D01*
X121218333Y-60996904D01*
X121215499Y-60970546D01*
X121215499Y-60305998D01*
X121215498Y-60305981D01*
X121204999Y-60203203D01*
X121204998Y-60203200D01*
X121149814Y-60036666D01*
X121057712Y-59887344D01*
X120933656Y-59763288D01*
X120784334Y-59671186D01*
X120617797Y-59616001D01*
X120617795Y-59616000D01*
X120515010Y-59605500D01*
X119514998Y-59605500D01*
X119514980Y-59605501D01*
X119412203Y-59616000D01*
X119412200Y-59616001D01*
X119245668Y-59671185D01*
X119245663Y-59671187D01*
X119096342Y-59763289D01*
X118972289Y-59887342D01*
X118880187Y-60036663D01*
X118880186Y-60036666D01*
X118825001Y-60203203D01*
X118825001Y-60203204D01*
X118825000Y-60203204D01*
X118814500Y-60305983D01*
X118814500Y-61106001D01*
X118814501Y-61106019D01*
X118825000Y-61208796D01*
X118825001Y-61208799D01*
X118875239Y-61360405D01*
X118880186Y-61375334D01*
X118934168Y-61462854D01*
X118972289Y-61524657D01*
X119065951Y-61618319D01*
X119099436Y-61679642D01*
X119094452Y-61749334D01*
X119065951Y-61793681D01*
X118972289Y-61887342D01*
X118880187Y-62036663D01*
X118880186Y-62036666D01*
X118825001Y-62203203D01*
X118825001Y-62203204D01*
X118825000Y-62203204D01*
X118814500Y-62305983D01*
X118814500Y-63106001D01*
X118814501Y-63106019D01*
X118825000Y-63208796D01*
X118825001Y-63208799D01*
X118880185Y-63375331D01*
X118880186Y-63375334D01*
X118972288Y-63524656D01*
X119096344Y-63648712D01*
X119245663Y-63740812D01*
X119245668Y-63740815D01*
X119266110Y-63747588D01*
X119304502Y-63760310D01*
X119361947Y-63800081D01*
X119388772Y-63864596D01*
X119389500Y-63878016D01*
X119389500Y-63929308D01*
X119369815Y-63996347D01*
X119317011Y-64042102D01*
X119304505Y-64047014D01*
X119273808Y-64057186D01*
X119124484Y-64149289D01*
X119000431Y-64273342D01*
X118908329Y-64422663D01*
X118908327Y-64422668D01*
X118889613Y-64479143D01*
X118853143Y-64589203D01*
X118853143Y-64589204D01*
X118853142Y-64589204D01*
X118842642Y-64691983D01*
X118842642Y-65442001D01*
X118842643Y-65442019D01*
X118853142Y-65544796D01*
X118853143Y-65544799D01*
X118908327Y-65711331D01*
X118908329Y-65711336D01*
X119000431Y-65860657D01*
X119124488Y-65984714D01*
X119127324Y-65986463D01*
X119128859Y-65988170D01*
X119130153Y-65989193D01*
X119129978Y-65989414D01*
X119174047Y-66038411D01*
X119185268Y-66107374D01*
X119157424Y-66171456D01*
X119127324Y-66197537D01*
X119124488Y-66199285D01*
X119000431Y-66323342D01*
X118908329Y-66472663D01*
X118908328Y-66472666D01*
X118853143Y-66639203D01*
X118853143Y-66639204D01*
X118853142Y-66639204D01*
X118842642Y-66741983D01*
X118842642Y-67492001D01*
X118842643Y-67492019D01*
X118853142Y-67594796D01*
X118853143Y-67594799D01*
X118908327Y-67761331D01*
X118908328Y-67761334D01*
X119000430Y-67910656D01*
X119124486Y-68034712D01*
X119273165Y-68126417D01*
X119319890Y-68178365D01*
X119331113Y-68247327D01*
X119312200Y-68295199D01*
X119313858Y-68296156D01*
X119215963Y-68465715D01*
X119215960Y-68465722D01*
X119157469Y-68645740D01*
X119157468Y-68645744D01*
X119137682Y-68834000D01*
X119157468Y-69022256D01*
X119157469Y-69022259D01*
X119215960Y-69202277D01*
X119215963Y-69202284D01*
X119310609Y-69366216D01*
X119336877Y-69395389D01*
X119337227Y-69395778D01*
X119367457Y-69458769D01*
X119358832Y-69528104D01*
X119314091Y-69581770D01*
X119284083Y-69596455D01*
X119245672Y-69609183D01*
X119245663Y-69609187D01*
X119096342Y-69701289D01*
X118972289Y-69825342D01*
X118880187Y-69974663D01*
X118880186Y-69974666D01*
X118825001Y-70141203D01*
X118825001Y-70141204D01*
X118825000Y-70141204D01*
X118814500Y-70243983D01*
X118814500Y-71044001D01*
X118814501Y-71044019D01*
X118825000Y-71146796D01*
X118825001Y-71146799D01*
X118869581Y-71281331D01*
X118880186Y-71313334D01*
X118952550Y-71430656D01*
X118972289Y-71462657D01*
X119065951Y-71556319D01*
X119099436Y-71617642D01*
X119094452Y-71687334D01*
X119065951Y-71731681D01*
X118972289Y-71825342D01*
X118880187Y-71974663D01*
X118880186Y-71974666D01*
X118825001Y-72141203D01*
X118825001Y-72141204D01*
X118825000Y-72141204D01*
X118814500Y-72243983D01*
X118814500Y-72908547D01*
X118794815Y-72975586D01*
X118778181Y-72996228D01*
X118228181Y-73546228D01*
X118166858Y-73579713D01*
X118097166Y-73574729D01*
X118041233Y-73532857D01*
X118016816Y-73467393D01*
X118016500Y-73458547D01*
X118016500Y-64640397D01*
X118016500Y-64640394D01*
X118016446Y-64640125D01*
X118004481Y-64579971D01*
X117992463Y-64519548D01*
X117975727Y-64479144D01*
X117945312Y-64405714D01*
X117911084Y-64354490D01*
X117876858Y-64303267D01*
X117876856Y-64303264D01*
X117786637Y-64213045D01*
X117786606Y-64213016D01*
X114647818Y-61074228D01*
X114614333Y-61012905D01*
X114611499Y-60986547D01*
X114611499Y-60321998D01*
X114611498Y-60321981D01*
X114600999Y-60219203D01*
X114600998Y-60219200D01*
X114595696Y-60203200D01*
X114545814Y-60052666D01*
X114453712Y-59903344D01*
X114329656Y-59779288D01*
X114180334Y-59687186D01*
X114013797Y-59632001D01*
X114013795Y-59632000D01*
X113911010Y-59621500D01*
X112910998Y-59621500D01*
X112910980Y-59621501D01*
X112808203Y-59632000D01*
X112808200Y-59632001D01*
X112641668Y-59687185D01*
X112641663Y-59687187D01*
X112492342Y-59779289D01*
X112368289Y-59903342D01*
X112276187Y-60052663D01*
X112276186Y-60052666D01*
X112221001Y-60219203D01*
X112221001Y-60219204D01*
X112221000Y-60219204D01*
X112210500Y-60321983D01*
X112210500Y-61122001D01*
X112210501Y-61122019D01*
X112221000Y-61224796D01*
X112221001Y-61224799D01*
X112265937Y-61360405D01*
X112276186Y-61391334D01*
X112320301Y-61462857D01*
X112368289Y-61540657D01*
X112461951Y-61634319D01*
X112495436Y-61695642D01*
X112490452Y-61765334D01*
X112461951Y-61809681D01*
X112368289Y-61903342D01*
X112276187Y-62052663D01*
X112276185Y-62052668D01*
X112248349Y-62136670D01*
X112221001Y-62219203D01*
X112221001Y-62219204D01*
X112221000Y-62219204D01*
X112210500Y-62321983D01*
X112210500Y-63122001D01*
X112210501Y-63122019D01*
X112221000Y-63224796D01*
X112221001Y-63224799D01*
X112270883Y-63375331D01*
X112276186Y-63391334D01*
X112368288Y-63540656D01*
X112492344Y-63664712D01*
X112641666Y-63756814D01*
X112641668Y-63756815D01*
X112652213Y-63760309D01*
X112700502Y-63776310D01*
X112757947Y-63816081D01*
X112784772Y-63880596D01*
X112785500Y-63894016D01*
X112785500Y-63945308D01*
X112765815Y-64012347D01*
X112713011Y-64058102D01*
X112700505Y-64063014D01*
X112669808Y-64073186D01*
X112520484Y-64165289D01*
X112396431Y-64289342D01*
X112304329Y-64438663D01*
X112304328Y-64438666D01*
X112249143Y-64605203D01*
X112249143Y-64605204D01*
X112249142Y-64605204D01*
X112238642Y-64707983D01*
X112238642Y-65458001D01*
X112238643Y-65458019D01*
X112249142Y-65560796D01*
X112249143Y-65560799D01*
X112304327Y-65727331D01*
X112304329Y-65727336D01*
X112396431Y-65876657D01*
X112520488Y-66000714D01*
X112523324Y-66002463D01*
X112524859Y-66004170D01*
X112526153Y-66005193D01*
X112525978Y-66005414D01*
X112570047Y-66054411D01*
X112581268Y-66123374D01*
X112553424Y-66187456D01*
X112523324Y-66213537D01*
X112520488Y-66215285D01*
X112396431Y-66339342D01*
X112304329Y-66488663D01*
X112304328Y-66488666D01*
X112249143Y-66655203D01*
X112249143Y-66655204D01*
X112249142Y-66655204D01*
X112238642Y-66757983D01*
X112238642Y-67508001D01*
X112238643Y-67508019D01*
X112249142Y-67610796D01*
X112249143Y-67610799D01*
X112299025Y-67761331D01*
X112304328Y-67777334D01*
X112396430Y-67926656D01*
X112520486Y-68050712D01*
X112641704Y-68125479D01*
X112688429Y-68177427D01*
X112699652Y-68246389D01*
X112680313Y-68295346D01*
X112681716Y-68296156D01*
X112583821Y-68465715D01*
X112583818Y-68465722D01*
X112525327Y-68645740D01*
X112525326Y-68645744D01*
X112505540Y-68834000D01*
X112525326Y-69022256D01*
X112525327Y-69022259D01*
X112583818Y-69202277D01*
X112583821Y-69202284D01*
X112678466Y-69366215D01*
X112711552Y-69402961D01*
X112741782Y-69465953D01*
X112733156Y-69535288D01*
X112688415Y-69588954D01*
X112658408Y-69603638D01*
X112641671Y-69609184D01*
X112641663Y-69609187D01*
X112492342Y-69701289D01*
X112368289Y-69825342D01*
X112276187Y-69974663D01*
X112276186Y-69974666D01*
X112221001Y-70141203D01*
X112221001Y-70141204D01*
X112221000Y-70141204D01*
X112210500Y-70243983D01*
X112210500Y-71044001D01*
X112210501Y-71044019D01*
X112221000Y-71146796D01*
X112221001Y-71146799D01*
X112265581Y-71281331D01*
X112276186Y-71313334D01*
X112348550Y-71430656D01*
X112368289Y-71462657D01*
X112461951Y-71556319D01*
X112495436Y-71617642D01*
X112490452Y-71687334D01*
X112461951Y-71731681D01*
X112368289Y-71825342D01*
X112276187Y-71974663D01*
X112276186Y-71974666D01*
X112221001Y-72141203D01*
X112221001Y-72141204D01*
X112221000Y-72141204D01*
X112210500Y-72243983D01*
X112210500Y-72908546D01*
X112190815Y-72975585D01*
X112174180Y-72996227D01*
X111137269Y-74033140D01*
X111137267Y-74033142D01*
X111050142Y-74120267D01*
X111017401Y-74169267D01*
X111001066Y-74193714D01*
X110981686Y-74222717D01*
X110962811Y-74268284D01*
X110962812Y-74268285D01*
X110934537Y-74336549D01*
X110934535Y-74336556D01*
X110910500Y-74457389D01*
X110910500Y-74867249D01*
X110890815Y-74934288D01*
X110860812Y-74966515D01*
X110803457Y-75009451D01*
X110803451Y-75009457D01*
X110717206Y-75124664D01*
X110717202Y-75124671D01*
X110666908Y-75259517D01*
X110660501Y-75319116D01*
X110660501Y-75319123D01*
X110660500Y-75319135D01*
X109093000Y-75319135D01*
X109093000Y-62277710D01*
X109093007Y-62276358D01*
X109095328Y-62063528D01*
X109095793Y-62054073D01*
X109095917Y-62052663D01*
X109132943Y-61629444D01*
X109134355Y-61618725D01*
X109141767Y-61576689D01*
X109208257Y-61199602D01*
X109210589Y-61189083D01*
X109320749Y-60777959D01*
X109323989Y-60767683D01*
X109469558Y-60367736D01*
X109473679Y-60357786D01*
X109653552Y-59972047D01*
X109658532Y-59962480D01*
X109871332Y-59593900D01*
X109877125Y-59584806D01*
X110121246Y-59236165D01*
X110127812Y-59227609D01*
X110401394Y-58901566D01*
X110408681Y-58893615D01*
X110709615Y-58592681D01*
X110717566Y-58585394D01*
X111043609Y-58311812D01*
X111052165Y-58305246D01*
X111400806Y-58061125D01*
X111409900Y-58055332D01*
X111778480Y-57842532D01*
X111788047Y-57837552D01*
X112173786Y-57657679D01*
X112183736Y-57653558D01*
X112583683Y-57507989D01*
X112593959Y-57504749D01*
X113005083Y-57394589D01*
X113015602Y-57392257D01*
X113434732Y-57318353D01*
X113445444Y-57316943D01*
X113870085Y-57279792D01*
X113879517Y-57279328D01*
X114092358Y-57277006D01*
X114093710Y-57277000D01*
X132667290Y-57277000D01*
X132668641Y-57277006D01*
G37*
%TD.AperFunction*%
%TD*%
%TA.AperFunction,NonConductor*%
G36*
X131741692Y-62974268D02*
G01*
X131797625Y-63016140D01*
X131822042Y-63081604D01*
X131822358Y-63090443D01*
X131822358Y-63105997D01*
X131822359Y-63106019D01*
X131832858Y-63208796D01*
X131832859Y-63208799D01*
X131888043Y-63375331D01*
X131888044Y-63375334D01*
X131980146Y-63524656D01*
X132104202Y-63648712D01*
X132253524Y-63740814D01*
X132340505Y-63769636D01*
X132397949Y-63809409D01*
X132424772Y-63873925D01*
X132425500Y-63887342D01*
X132425500Y-63919983D01*
X132405815Y-63987022D01*
X132353011Y-64032777D01*
X132340510Y-64037686D01*
X132281666Y-64057186D01*
X132281663Y-64057187D01*
X132132342Y-64149289D01*
X132008289Y-64273342D01*
X131916187Y-64422663D01*
X131916185Y-64422668D01*
X131897471Y-64479143D01*
X131861001Y-64589203D01*
X131861001Y-64589204D01*
X131861000Y-64589204D01*
X131850500Y-64691983D01*
X131850500Y-65442001D01*
X131850501Y-65442019D01*
X131861000Y-65544796D01*
X131861001Y-65544799D01*
X131916185Y-65711331D01*
X131916187Y-65711336D01*
X132008289Y-65860657D01*
X132132346Y-65984714D01*
X132135182Y-65986463D01*
X132136717Y-65988170D01*
X132138011Y-65989193D01*
X132137836Y-65989414D01*
X132181905Y-66038411D01*
X132193126Y-66107374D01*
X132165282Y-66171456D01*
X132135182Y-66197537D01*
X132132346Y-66199285D01*
X132008289Y-66323342D01*
X131916187Y-66472663D01*
X131916186Y-66472666D01*
X131861001Y-66639203D01*
X131861001Y-66639204D01*
X131861000Y-66639204D01*
X131850500Y-66741983D01*
X131850500Y-67492001D01*
X131850501Y-67492019D01*
X131861000Y-67594796D01*
X131861001Y-67594799D01*
X131916185Y-67761331D01*
X131916186Y-67761334D01*
X132008288Y-67910656D01*
X132132344Y-68034712D01*
X132281666Y-68126814D01*
X132290635Y-68129786D01*
X132348078Y-68169558D01*
X132374901Y-68234074D01*
X132362586Y-68302850D01*
X132359017Y-68309490D01*
X132268820Y-68465718D01*
X132268818Y-68465722D01*
X132210327Y-68645740D01*
X132210326Y-68645744D01*
X132190540Y-68834000D01*
X132210326Y-69022256D01*
X132210327Y-69022259D01*
X132268818Y-69202277D01*
X132268821Y-69202284D01*
X132363466Y-69366215D01*
X132374360Y-69378314D01*
X132404590Y-69441306D01*
X132395964Y-69510641D01*
X132351223Y-69564306D01*
X132332827Y-69573316D01*
X132333209Y-69574136D01*
X132326663Y-69577187D01*
X132177342Y-69669289D01*
X132053289Y-69793342D01*
X131961187Y-69942663D01*
X131961185Y-69942668D01*
X131933349Y-70026670D01*
X131906001Y-70109203D01*
X131906001Y-70109204D01*
X131906000Y-70109204D01*
X131895500Y-70211983D01*
X131895500Y-71012001D01*
X131895501Y-71012019D01*
X131906000Y-71114796D01*
X131906001Y-71114799D01*
X131961185Y-71281331D01*
X131961187Y-71281336D01*
X132053289Y-71430657D01*
X132146951Y-71524319D01*
X132180436Y-71585642D01*
X132175452Y-71655334D01*
X132146951Y-71699681D01*
X132053289Y-71793342D01*
X131961187Y-71942663D01*
X131961185Y-71942668D01*
X131933349Y-72026670D01*
X131906001Y-72109203D01*
X131906001Y-72109204D01*
X131906000Y-72109204D01*
X131895500Y-72211983D01*
X131895500Y-73012001D01*
X131895501Y-73012019D01*
X131906000Y-73114796D01*
X131906001Y-73114799D01*
X131961185Y-73281331D01*
X131961186Y-73281334D01*
X132053288Y-73430656D01*
X132177344Y-73554712D01*
X132229225Y-73586712D01*
X132323031Y-73644572D01*
X132369756Y-73696520D01*
X132380979Y-73765482D01*
X132353135Y-73829565D01*
X132345616Y-73837792D01*
X131353227Y-74830181D01*
X131291904Y-74863666D01*
X131265546Y-74866500D01*
X130778129Y-74866500D01*
X130778123Y-74866501D01*
X130718516Y-74872908D01*
X130583671Y-74923202D01*
X130583664Y-74923206D01*
X130468455Y-75009452D01*
X130468452Y-75009455D01*
X130394766Y-75107887D01*
X130338832Y-75149758D01*
X130269141Y-75154742D01*
X130207818Y-75121256D01*
X130174334Y-75059933D01*
X130171500Y-75033576D01*
X130171500Y-64493309D01*
X130191185Y-64426270D01*
X130207814Y-64405633D01*
X131610679Y-63002767D01*
X131672000Y-62969284D01*
X131741692Y-62974268D01*
G37*
%TD.AperFunction*%
%TA.AperFunction,NonConductor*%
G36*
X120385681Y-73764184D02*
G01*
X120431436Y-73816988D01*
X120442642Y-73868499D01*
X120442642Y-82608988D01*
X120422957Y-82676027D01*
X120370153Y-82721782D01*
X120300995Y-82731726D01*
X120237439Y-82702701D01*
X120230961Y-82696669D01*
X119009629Y-81475338D01*
X119009627Y-81475335D01*
X119002818Y-81468526D01*
X119000372Y-81464046D01*
X118994136Y-81456440D01*
X118994134Y-81456437D01*
X118995661Y-81455418D01*
X118969333Y-81407203D01*
X118966499Y-81380845D01*
X118966499Y-81319129D01*
X118966498Y-81319123D01*
X118966497Y-81319116D01*
X118960091Y-81259517D01*
X118921012Y-81154742D01*
X118909797Y-81124671D01*
X118909793Y-81124664D01*
X118823547Y-81009455D01*
X118823544Y-81009452D01*
X118708335Y-80923206D01*
X118708328Y-80923202D01*
X118573482Y-80872908D01*
X118573483Y-80872908D01*
X118513883Y-80866501D01*
X118513881Y-80866500D01*
X118513873Y-80866500D01*
X118513865Y-80866500D01*
X118140500Y-80866500D01*
X118073461Y-80846815D01*
X118027706Y-80794011D01*
X118016500Y-80742500D01*
X118016500Y-76991499D01*
X118036185Y-76924460D01*
X118088989Y-76878705D01*
X118140500Y-76867499D01*
X118513871Y-76867499D01*
X118513872Y-76867499D01*
X118573483Y-76861091D01*
X118708331Y-76810796D01*
X118823546Y-76724546D01*
X118909796Y-76609331D01*
X118960091Y-76474483D01*
X118966500Y-76414873D01*
X118966499Y-75319128D01*
X118960091Y-75259517D01*
X118921012Y-75154742D01*
X118909797Y-75124671D01*
X118909793Y-75124664D01*
X118823548Y-75009457D01*
X118823546Y-75009454D01*
X118772594Y-74971311D01*
X118730724Y-74915378D01*
X118725740Y-74845686D01*
X118759223Y-74784366D01*
X119762771Y-73780817D01*
X119824094Y-73747333D01*
X119850452Y-73744499D01*
X120318642Y-73744499D01*
X120385681Y-73764184D01*
G37*
%TD.AperFunction*%
%TA.AperFunction,NonConductor*%
G36*
X130376703Y-82606710D02*
G01*
X130394763Y-82626107D01*
X130468452Y-82724543D01*
X130468455Y-82724547D01*
X130525810Y-82767482D01*
X130567682Y-82823415D01*
X130575500Y-82866749D01*
X130575500Y-84896547D01*
X130555815Y-84963586D01*
X130539181Y-84984228D01*
X129705180Y-85818229D01*
X129643857Y-85851714D01*
X129574165Y-85846730D01*
X129518232Y-85804858D01*
X129493815Y-85739394D01*
X129493499Y-85730548D01*
X129493499Y-85310453D01*
X129513184Y-85243414D01*
X129529818Y-85222772D01*
X129768363Y-84984228D01*
X130031858Y-84720733D01*
X130100312Y-84618285D01*
X130147463Y-84504451D01*
X130165218Y-84415193D01*
X130171501Y-84383608D01*
X130171501Y-84255283D01*
X130171500Y-84255257D01*
X130171500Y-82700423D01*
X130191185Y-82633384D01*
X130243989Y-82587629D01*
X130313147Y-82577685D01*
X130376703Y-82606710D01*
G37*
%TD.AperFunction*%
%TA.AperFunction,NonConductor*%
G36*
X126727340Y-86613068D02*
G01*
X126783274Y-86654939D01*
X126800189Y-86685917D01*
X126849202Y-86817328D01*
X126849206Y-86817335D01*
X126935452Y-86932544D01*
X126935455Y-86932547D01*
X127050664Y-87018793D01*
X127050671Y-87018797D01*
X127182081Y-87067810D01*
X127238015Y-87109681D01*
X127262432Y-87175145D01*
X127247580Y-87243418D01*
X127226430Y-87271673D01*
X127104503Y-87393600D01*
X126974575Y-87579158D01*
X126919998Y-87622783D01*
X126850500Y-87629977D01*
X126788145Y-87598454D01*
X126771425Y-87579158D01*
X126641494Y-87393597D01*
X126474402Y-87226506D01*
X126474396Y-87226501D01*
X126288842Y-87096575D01*
X126245217Y-87041998D01*
X126238023Y-86972500D01*
X126269546Y-86910145D01*
X126288842Y-86893425D01*
X126359042Y-86844270D01*
X126474401Y-86763495D01*
X126596329Y-86641566D01*
X126657648Y-86608084D01*
X126727340Y-86613068D01*
G37*
%TD.AperFunction*%
M02*
